{
  "accessors": [
    {
      "bufferView": 0,
      "componentType": 5126,
      "count": 538,
      "max": [
        0.03888511285185814,
        0.09977412968873978,
        0.04376036301255226
      ],
      "min": [
        -0.04798664152622223,
        0.0,
        -0.04376036301255226
      ],
      "name": "RT_body3/POSITION",
      "type": "VEC3"
    },
    {
      "bufferView": 0,
      "byteOffset": 12,
      "componentType": 5126,
      "count": 538,
      "name": "RT_body3/NORMAL",
      "type": "VEC3"
    },
    {
      "bufferView": 0,
      "byteOffset": 24,
      "componentType": 5126,
      "count": 538,
      "name": "RT_body3/TEXCOORD_0",
      "type": "VEC2"
    },
    {
      "bufferView": 1,
      "componentType": 5123,
      "count": 807,
      "name": "RT_body3/INDICES",
      "type": "SCALAR"
    },
    {
      "bufferView": 2,
      "componentType": 5126,
      "count": 240,
      "max": [
        0.039599403738975525,
        0.13452865183353424,
        0.012915057130157948
      ],
      "min": [
        -0.07086634635925293,
        0.11958688497543335,
        -0.0137399360537529
      ],
      "name": "RT_wood_rock3/POSITION",
      "type": "VEC3"
    },
    {
      "bufferView": 2,
      "byteOffset": 12,
      "componentType": 5126,
      "count": 240,
      "name": "RT_wood_rock3/NORMAL",
      "type": "VEC3"
    },
    {
      "bufferView": 2,
      "byteOffset": 24,
      "componentType": 5126,
      "count": 240,
      "name": "RT_wood_rock3/TEXCOORD_0",
      "type": "VEC2"
    },
    {
      "bufferView": 3,
      "componentType": 5123,
      "count": 342,
      "name": "RT_wood_rock3/INDICES",
      "type": "SCALAR"
    },
    {
      "bufferView": 4,
      "componentType": 5126,
      "count": 346,
      "max": [
        0.04798664152622223,
        0.1128140389919281,
        0.03470472991466522
      ],
      "min": [
        -0.036504171788692474,
        0.0,
        -0.034704651683568954
      ],
      "name": "RT_color_paties3/POSITION",
      "type": "VEC3"
    },
    {
      "bufferView": 4,
      "byteOffset": 12,
      "componentType": 5126,
      "count": 346,
      "name": "RT_color_paties3/NORMAL",
      "type": "VEC3"
    },
    {
      "bufferView": 4,
      "byteOffset": 24,
      "componentType": 5126,
      "count": 346,
      "name": "RT_color_paties3/TEXCOORD_0",
      "type": "VEC2"
    },
    {
      "bufferView": 5,
      "componentType": 5123,
      "count": 504,
      "name": "RT_color_paties3/INDICES",
      "type": "SCALAR"
    },
    {
      "bufferView": 6,
      "componentType": 5126,
      "count": 198,
      "max": [
        0.02332036942243576,
        0.1349969208240509,
        0.027962572872638702
      ],
      "min": [
        -0.02332037128508091,
        0.10339276492595673,
        -0.027962572872638702
      ],
      "name": "RT_spinbase33/POSITION",
      "type": "VEC3"
    },
    {
      "bufferView": 6,
      "byteOffset": 12,
      "componentType": 5126,
      "count": 198,
      "name": "RT_spinbase33/NORMAL",
      "type": "VEC3"
    },
    {
      "bufferView": 6,
      "byteOffset": 24,
      "componentType": 5126,
      "count": 198,
      "name": "RT_spinbase33/TEXCOORD_0",
      "type": "VEC2"
    },
    {
      "bufferView": 7,
      "componentType": 5123,
      "count": 312,
      "name": "RT_spinbase33/INDICES",
      "type": "SCALAR"
    },
    {
      "bufferView": 8,
      "componentType": 5126,
      "count": 240,
      "max": [
        0.0337594598531723,
        0.13814808428287506,
        0.012915057130157948
      ],
      "min": [
        -0.07086634635925293,
        0.12320631742477417,
        -0.0137399360537529
      ],
      "name": "RT_wood_rock2/POSITION",
      "type": "VEC3"
    },
    {
      "bufferView": 8,
      "byteOffset": 12,
      "componentType": 5126,
      "count": 240,
      "name": "RT_wood_rock2/NORMAL",
      "type": "VEC3"
    },
    {
      "bufferView": 8,
      "byteOffset": 24,
      "componentType": 5126,
      "count": 240,
      "name": "RT_wood_rock2/TEXCOORD_0",
      "type": "VEC2"
    },
    {
      "bufferView": 9,
      "componentType": 5123,
      "count": 342,
      "name": "RT_wood_rock2/INDICES",
      "type": "SCALAR"
    },
    {
      "bufferView": 10,
      "componentType": 5126,
      "count": 418,
      "max": [
        0.04865097999572754,
        0.10026200115680695,
        0.04376036301255226
      ],
      "min": [
        -0.044478483498096466,
        0.0,
        -0.04376036301255226
      ],
      "name": "RT_body2/POSITION",
      "type": "VEC3"
    },
    {
      "bufferView": 10,
      "byteOffset": 12,
      "componentType": 5126,
      "count": 418,
      "name": "RT_body2/NORMAL",
      "type": "VEC3"
    },
    {
      "bufferView": 10,
      "byteOffset": 24,
      "componentType": 5126,
      "count": 418,
      "name": "RT_body2/TEXCOORD_0",
      "type": "VEC2"
    },
    {
      "bufferView": 11,
      "componentType": 5123,
      "count": 627,
      "name": "RT_body2/INDICES",
      "type": "SCALAR"
    },
    {
      "bufferView": 12,
      "componentType": 5126,
      "count": 187,
      "max": [
        0.021949462592601776,
        0.13963168859481812,
        0.027962572872638702
      ],
      "min": [
        -0.021949464455246925,
        0.09692682325839996,
        -0.027962572872638702
      ],
      "name": "RT_spinbase2/POSITION",
      "type": "VEC3"
    },
    {
      "bufferView": 12,
      "byteOffset": 12,
      "componentType": 5126,
      "count": 187,
      "name": "RT_spinbase2/NORMAL",
      "type": "VEC3"
    },
    {
      "bufferView": 12,
      "byteOffset": 24,
      "componentType": 5126,
      "count": 187,
      "name": "RT_spinbase2/TEXCOORD_0",
      "type": "VEC2"
    },
    {
      "bufferView": 13,
      "componentType": 5123,
      "count": 282,
      "name": "RT_spinbase2/INDICES",
      "type": "SCALAR"
    },
    {
      "bufferView": 14,
      "componentType": 5126,
      "count": 346,
      "max": [
        0.05085289850831032,
        0.10626308619976044,
        0.03470472991466522
      ],
      "min": [
        -0.03363790735602379,
        -1.0794818663199706e-18,
        -0.034704651683568954
      ],
      "name": "RT_color_parties/POSITION",
      "type": "VEC3"
    },
    {
      "bufferView": 14,
      "byteOffset": 12,
      "componentType": 5126,
      "count": 346,
      "name": "RT_color_parties/NORMAL",
      "type": "VEC3"
    },
    {
      "bufferView": 14,
      "byteOffset": 24,
      "componentType": 5126,
      "count": 346,
      "name": "RT_color_parties/TEXCOORD_0",
      "type": "VEC2"
    },
    {
      "bufferView": 15,
      "componentType": 5123,
      "count": 504,
      "name": "RT_color_parties/INDICES",
      "type": "SCALAR"
    },
    {
      "bufferView": 16,
      "componentType": 5126,
      "count": 283,
      "max": [
        0.03860042616724968,
        0.07837022095918655,
        0.04376036301255226
      ],
      "min": [
        -0.04798664152622223,
        -2.309680002809955e-09,
        -0.04376036301255226
      ],
      "name": "RT_body1/POSITION",
      "type": "VEC3"
    },
    {
      "bufferView": 16,
      "byteOffset": 12,
      "componentType": 5126,
      "count": 283,
      "name": "RT_body1/NORMAL",
      "type": "VEC3"
    },
    {
      "bufferView": 16,
      "byteOffset": 24,
      "componentType": 5126,
      "count": 283,
      "name": "RT_body1/TEXCOORD_0",
      "type": "VEC2"
    },
    {
      "bufferView": 17,
      "componentType": 5123,
      "count": 423,
      "name": "RT_body1/INDICES",
      "type": "SCALAR"
    },
    {
      "bufferView": 18,
      "componentType": 5126,
      "count": 240,
      "max": [
        0.039599403738975525,
        0.10813652724027634,
        0.012915057130157948
      ],
      "min": [
        -0.07086634635925293,
        0.09319476038217545,
        -0.0137399360537529
      ],
      "name": "RT_wood_rock1/POSITION",
      "type": "VEC3"
    },
    {
      "bufferView": 18,
      "byteOffset": 12,
      "componentType": 5126,
      "count": 240,
      "name": "RT_wood_rock1/NORMAL",
      "type": "VEC3"
    },
    {
      "bufferView": 18,
      "byteOffset": 24,
      "componentType": 5126,
      "count": 240,
      "name": "RT_wood_rock1/TEXCOORD_0",
      "type": "VEC2"
    },
    {
      "bufferView": 19,
      "componentType": 5123,
      "count": 342,
      "name": "RT_wood_rock1/INDICES",
      "type": "SCALAR"
    },
    {
      "bufferView": 20,
      "componentType": 5126,
      "count": 346,
      "max": [
        0.04798664152622223,
        0.08530855923891068,
        0.038174085319042206
      ],
      "min": [
        -0.036504171788692474,
        -0.0006582736968994141,
        -0.03123529441654682
      ],
      "name": "RT_color_parties1/POSITION",
      "type": "VEC3"
    },
    {
      "bufferView": 20,
      "byteOffset": 12,
      "componentType": 5126,
      "count": 346,
      "name": "RT_color_parties1/NORMAL",
      "type": "VEC3"
    },
    {
      "bufferView": 20,
      "byteOffset": 24,
      "componentType": 5126,
      "count": 346,
      "name": "RT_color_parties1/TEXCOORD_0",
      "type": "VEC2"
    },
    {
      "bufferView": 21,
      "componentType": 5123,
      "count": 504,
      "name": "RT_color_parties1/INDICES",
      "type": "SCALAR"
    },
    {
      "bufferView": 22,
      "componentType": 5126,
      "count": 187,
      "max": [
        0.021569104865193367,
        0.10997437685728073,
        0.027962572872638702
      ],
      "min": [
        -0.021569106727838516,
        0.07772793620824814,
        -0.027962572872638702
      ],
      "name": "RT_spinbase1/POSITION",
      "type": "VEC3"
    },
    {
      "bufferView": 22,
      "byteOffset": 12,
      "componentType": 5126,
      "count": 187,
      "name": "RT_spinbase1/NORMAL",
      "type": "VEC3"
    },
    {
      "bufferView": 22,
      "byteOffset": 24,
      "componentType": 5126,
      "count": 187,
      "name": "RT_spinbase1/TEXCOORD_0",
      "type": "VEC2"
    },
    {
      "bufferView": 23,
      "componentType": 5123,
      "count": 282,
      "name": "RT_spinbase1/INDICES",
      "type": "SCALAR"
    }
  ],
  "asset": {
    "copyright": "Copyright (c) 2018-2020 Chukong Technologies Inc.",
    "generator": "FBX-glTF-conv",
    "version": "2.0"
  },
  "bufferViews": [
    {
      "buffer": 0,
      "byteLength": 17216,
      "byteStride": 32,
      "name": "RT_body3",
      "target": 34962
    },
    {
      "buffer": 0,
      "byteLength": 1614,
      "byteOffset": 17216,
      "target": 34963
    },
    {
      "buffer": 0,
      "byteLength": 7680,
      "byteOffset": 18830,
      "byteStride": 32,
      "name": "RT_wood_rock3",
      "target": 34962
    },
    {
      "buffer": 0,
      "byteLength": 684,
      "byteOffset": 26510,
      "target": 34963
    },
    {
      "buffer": 0,
      "byteLength": 11072,
      "byteOffset": 27194,
      "byteStride": 32,
      "name": "RT_color_paties3",
      "target": 34962
    },
    {
      "buffer": 0,
      "byteLength": 1008,
      "byteOffset": 38266,
      "target": 34963
    },
    {
      "buffer": 0,
      "byteLength": 6336,
      "byteOffset": 39274,
      "byteStride": 32,
      "name": "RT_spinbase33",
      "target": 34962
    },
    {
      "buffer": 0,
      "byteLength": 624,
      "byteOffset": 45610,
      "target": 34963
    },
    {
      "buffer": 0,
      "byteLength": 7680,
      "byteOffset": 46234,
      "byteStride": 32,
      "name": "RT_wood_rock2",
      "target": 34962
    },
    {
      "buffer": 0,
      "byteLength": 684,
      "byteOffset": 53914,
      "target": 34963
    },
    {
      "buffer": 0,
      "byteLength": 13376,
      "byteOffset": 54598,
      "byteStride": 32,
      "name": "RT_body2",
      "target": 34962
    },
    {
      "buffer": 0,
      "byteLength": 1254,
      "byteOffset": 67974,
      "target": 34963
    },
    {
      "buffer": 0,
      "byteLength": 5984,
      "byteOffset": 69228,
      "byteStride": 32,
      "name": "RT_spinbase2",
      "target": 34962
    },
    {
      "buffer": 0,
      "byteLength": 564,
      "byteOffset": 75212,
      "target": 34963
    },
    {
      "buffer": 0,
      "byteLength": 11072,
      "byteOffset": 75776,
      "byteStride": 32,
      "name": "RT_color_parties",
      "target": 34962
    },
    {
      "buffer": 0,
      "byteLength": 1008,
      "byteOffset": 86848,
      "target": 34963
    },
    {
      "buffer": 0,
      "byteLength": 9056,
      "byteOffset": 87856,
      "byteStride": 32,
      "name": "RT_body1",
      "target": 34962
    },
    {
      "buffer": 0,
      "byteLength": 846,
      "byteOffset": 96912,
      "target": 34963
    },
    {
      "buffer": 0,
      "byteLength": 7680,
      "byteOffset": 97758,
      "byteStride": 32,
      "name": "RT_wood_rock1",
      "target": 34962
    },
    {
      "buffer": 0,
      "byteLength": 684,
      "byteOffset": 105438,
      "target": 34963
    },
    {
      "buffer": 0,
      "byteLength": 11072,
      "byteOffset": 106122,
      "byteStride": 32,
      "name": "RT_color_parties1",
      "target": 34962
    },
    {
      "buffer": 0,
      "byteLength": 1008,
      "byteOffset": 117194,
      "target": 34963
    },
    {
      "buffer": 0,
      "byteLength": 5984,
      "byteOffset": 118202,
      "byteStride": 32,
      "name": "RT_spinbase1",
      "target": 34962
    },
    {
      "buffer": 0,
      "byteLength": 564,
      "byteOffset": 124186,
      "target": 34963
    }
  ],
  "buffers": [
    {
      "byteLength": 124750,
      "uri": "out.bin"
    }
  ],
  "extras": {
    "FBX-glTF-conv": {
      "animationFrameRate": 24.0,
      "fbxFileHeaderInfo": {
        "creationTimeStamp": {
          "day": 18,
          "hour": 8,
          "millisecond": 854,
          "minute": 54,
          "month": 1,
          "second": 57,
          "year": 2024
        },
        "creator": "FBX SDK/FBX Plugins version 2020.3.1",
        "sceneInfo": {
          "author": "",
          "comment": "",
          "keywords": "",
          "original": {
            "applicationName": "Maya",
            "applicationVendor": "Autodesk",
            "applicationVersion": "2023",
            "fileName": "D:\\3 WORKING\\33_tatic_war\\4 - MODELING\\2_FBX\\RT_RockThrow_pack.fbx"
          },
          "revision": "",
          "subject": "",
          "title": "",
          "url": "D:\\test\\assets\\Game\\folder\\House\\RT_RockThrow_pack.fbx"
        }
      }
    }
  },
  "images": [
    {
      "extras": {
        "FBX-glTF-conv": {
          "fileName": "D:/3 WORKING/33_tatic_war/6 - TEXTURE/unit_Tatic war/unit_color1.psd",
          "relativeFileName": "..\\..\\6 - TEXTURE\\unit_Tatic war\\unit_color1.psd"
        }
      },
      "name": "unit_color1_1",
      "uri": "data:image/png;base64,"
    }
  ],
  "materials": [
    {
      "extras": {
        "FBX-glTF-conv": {
          "raw": {
            "properties": {
              "ambient": {
                "value": [
                  0.0,
                  0.0,
                  0.0
                ]
              },
              "ambientFactor": {
                "value": 1.0
              },
              "bump": {
                "value": [
                  0.0,
                  0.0,
                  0.0
                ]
              },
              "bumpFactor": {
                "value": 1.0
              },
              "diffuse": {
                "texture": {
                  "index": 0
                },
                "value": [
                  1.0,
                  1.0,
                  1.0
                ]
              },
              "diffuseFactor": {
                "value": 0.800000011920929
              },
              "displacementColor": {
                "value": [
                  0.0,
                  0.0,
                  0.0
                ]
              },
              "displacementFactor": {
                "value": 1.0
              },
              "emissive": {
                "value": [
                  0.0,
                  0.0,
                  0.0
                ]
              },
              "emissiveFactor": {
                "value": 1.0
              },
              "normalMap": {
                "value": [
                  0.0,
                  0.0,
                  0.0
                ]
              },
              "shadingModel": "Lambert",
              "transparencyFactor": {
                "value": 1.0
              },
              "transparentColor": {
                "value": [
                  0.0,
                  0.0,
                  0.0
                ]
              },
              "vectorDisplacementColor": {
                "value": [
                  0.0,
                  0.0,
                  0.0
                ]
              },
              "vectorDisplacementFactor": {
                "value": 1.0
              }
            },
            "type": "lambert"
          }
        }
      },
      "name": "unit_color"
    },
    {
      "extras": {
        "FBX-glTF-conv": {
          "raw": {
            "properties": {
              "ambient": {
                "value": [
                  0.0,
                  0.0,
                  0.0
                ]
              },
              "ambientFactor": {
                "value": 1.0
              },
              "bump": {
                "value": [
                  0.0,
                  0.0,
                  0.0
                ]
              },
              "bumpFactor": {
                "value": 1.0
              },
              "diffuse": {
                "value": [
                  0.0,
                  0.3779999911785126,
                  1.0
                ]
              },
              "diffuseFactor": {
                "value": 0.800000011920929
              },
              "displacementColor": {
                "value": [
                  0.0,
                  0.0,
                  0.0
                ]
              },
              "displacementFactor": {
                "value": 1.0
              },
              "emissive": {
                "value": [
                  0.0,
                  0.0,
                  0.0
                ]
              },
              "emissiveFactor": {
                "value": 1.0
              },
              "normalMap": {
                "value": [
                  0.0,
                  0.0,
                  0.0
                ]
              },
              "shadingModel": "Lambert",
              "transparencyFactor": {
                "value": 1.0
              },
              "transparentColor": {
                "value": [
                  0.0,
                  0.0,
                  0.0
                ]
              },
              "vectorDisplacementColor": {
                "value": [
                  0.0,
                  0.0,
                  0.0
                ]
              },
              "vectorDisplacementFactor": {
                "value": 1.0
              }
            },
            "type": "lambert"
          }
        }
      },
      "name": "color_parties"
    }
  ],
  "meshes": [
    {
      "name": "RT_body3",
      "primitives": [
        {
          "attributes": {
            "NORMAL": 1,
            "POSITION": 0,
            "TEXCOORD_0": 2
          },
          "indices": 3,
          "material": 0
        }
      ]
    },
    {
      "name": "RT_wood_rock3",
      "primitives": [
        {
          "attributes": {
            "NORMAL": 5,
            "POSITION": 4,
            "TEXCOORD_0": 6
          },
          "indices": 7,
          "material": 0
        }
      ]
    },
    {
      "name": "RT_color_paties3",
      "primitives": [
        {
          "attributes": {
            "NORMAL": 9,
            "POSITION": 8,
            "TEXCOORD_0": 10
          },
          "indices": 11,
          "material": 1
        }
      ]
    },
    {
      "name": "RT_spinbase33",
      "primitives": [
        {
          "attributes": {
            "NORMAL": 13,
            "POSITION": 12,
            "TEXCOORD_0": 14
          },
          "indices": 15,
          "material": 0
        }
      ]
    },
    {
      "name": "RT_wood_rock2",
      "primitives": [
        {
          "attributes": {
            "NORMAL": 17,
            "POSITION": 16,
            "TEXCOORD_0": 18
          },
          "indices": 19,
          "material": 0
        }
      ]
    },
    {
      "name": "RT_body2",
      "primitives": [
        {
          "attributes": {
            "NORMAL": 21,
            "POSITION": 20,
            "TEXCOORD_0": 22
          },
          "indices": 23,
          "material": 0
        }
      ]
    },
    {
      "name": "RT_spinbase2",
      "primitives": [
        {
          "attributes": {
            "NORMAL": 25,
            "POSITION": 24,
            "TEXCOORD_0": 26
          },
          "indices": 27,
          "material": 0
        }
      ]
    },
    {
      "name": "RT_color_parties",
      "primitives": [
        {
          "attributes": {
            "NORMAL": 29,
            "POSITION": 28,
            "TEXCOORD_0": 30
          },
          "indices": 31,
          "material": 1
        }
      ]
    },
    {
      "name": "RT_body1",
      "primitives": [
        {
          "attributes": {
            "NORMAL": 33,
            "POSITION": 32,
            "TEXCOORD_0": 34
          },
          "indices": 35,
          "material": 0
        }
      ]
    },
    {
      "name": "RT_wood_rock1",
      "primitives": [
        {
          "attributes": {
            "NORMAL": 37,
            "POSITION": 36,
            "TEXCOORD_0": 38
          },
          "indices": 39,
          "material": 0
        }
      ]
    },
    {
      "name": "RT_color_parties1",
      "primitives": [
        {
          "attributes": {
            "NORMAL": 41,
            "POSITION": 40,
            "TEXCOORD_0": 42
          },
          "indices": 43,
          "material": 1
        }
      ]
    },
    {
      "name": "RT_spinbase1",
      "primitives": [
        {
          "attributes": {
            "NORMAL": 45,
            "POSITION": 44,
            "TEXCOORD_0": 46
          },
          "indices": 47,
          "material": 0
        }
      ]
    }
  ],
  "nodes": [
    {
      "children": [
        1,
        2,
        3,
        4
      ],
      "name": "RT_3"
    },
    {
      "mesh": 0,
      "name": "RT_body3"
    },
    {
      "mesh": 1,
      "name": "RT_wood_rock3"
    },
    {
      "mesh": 2,
      "name": "RT_color_paties3"
    },
    {
      "mesh": 3,
      "name": "RT_spinbase33"
    },
    {
      "children": [
        6,
        7,
        8,
        9
      ],
      "name": "Rt_2"
    },
    {
      "mesh": 4,
      "name": "RT_wood_rock2"
    },
    {
      "mesh": 5,
      "name": "RT_body2"
    },
    {
      "mesh": 6,
      "name": "RT_spinbase2"
    },
    {
      "mesh": 7,
      "name": "RT_color_parties"
    },
    {
      "children": [
        11,
        12,
        13,
        14
      ],
      "name": "Rt_1"
    },
    {
      "mesh": 8,
      "name": "RT_body1"
    },
    {
      "mesh": 9,
      "name": "RT_wood_rock1"
    },
    {
      "mesh": 10,
      "name": "RT_color_parties1",
      "translation": [
        0.0,
        0.0006582713685929775,
        -0.0034693574998527765
      ]
    },
    {
      "mesh": 11,
      "name": "RT_spinbase1"
    }
  ],
  "samplers": [
    {}
  ],
  "scenes": [
    {
      "nodes": [
        0,
        5,
        10
      ]
    }
  ],
  "textures": [
    {
      "name": "unit_color1_1",
      "sampler": 0,
      "source": 0
    }
  ]
}