{
  "accessors": [
    {
      "bufferView": 0,
      "componentType": 5126,
      "count": 78,
      "max": [
        0.008933386765420437,
        0.0239231176674366,
        0.00998346135020256
      ],
      "min": [
        -0.008933387696743011,
        -0.001080313348211348,
        -0.00998346135020256
      ],
      "name": "pine_tree/POSITION",
      "type": "VEC3"
    },
    {
      "bufferView": 0,
      "byteOffset": 12,
      "componentType": 5126,
      "count": 78,
      "name": "pine_tree/NORMAL",
      "type": "VEC3"
    },
    {
      "bufferView": 0,
      "byteOffset": 24,
      "componentType": 5126,
      "count": 78,
      "name": "pine_tree/TEXCOORD_0",
      "type": "VEC2"
    },
    {
      "bufferView": 1,
      "componentType": 5123,
      "count": 90,
      "name": "pine_tree/INDICES",
      "type": "SCALAR"
    }
  ],
  "asset": {
    "copyright": "Copyright (c) 2018-2020 Chukong Technologies Inc.",
    "generator": "FBX-glTF-conv",
    "version": "2.0"
  },
  "bufferViews": [
    {
      "buffer": 0,
      "byteLength": 2496,
      "byteStride": 32,
      "name": "pine_tree",
      "target": 34962
    },
    {
      "buffer": 0,
      "byteLength": 180,
      "byteOffset": 2496,
      "target": 34963
    }
  ],
  "buffers": [
    {
      "byteLength": 2676,
      "uri": "out.bin"
    }
  ],
  "extras": {
    "FBX-glTF-conv": {
      "animationFrameRate": 30.0,
      "fbxFileHeaderInfo": {
        "creationTimeStamp": {
          "day": 29,
          "hour": 10,
          "millisecond": 496,
          "minute": 27,
          "month": 1,
          "second": 49,
          "year": 2024
        },
        "creator": "FBX SDK/FBX Plugins version 2020.3.1",
        "sceneInfo": {
          "author": "",
          "comment": "",
          "keywords": "",
          "original": {
            "applicationName": "Maya",
            "applicationVendor": "Autodesk",
            "applicationVersion": "2023",
            "fileName": "D:\\3 WORKING\\33_tatic_war\\4 - MODELING\\2_FBX\\pinetree.fbx"
          },
          "revision": "",
          "subject": "",
          "title": "",
          "url": "D:\\test\\assets\\Game\\folder\\xanh_co_map\\pinetree 1.fbx"
        }
      }
    }
  },
  "images": [
    {
      "extras": {
        "FBX-glTF-conv": {
          "fileName": "D:/3 WORKING/33_tatic_war/11_UNITY ASSET URP/TATIC_WAR/Assets/IMPORT_ASSETS/TH_art/xanh_co_map/MapTexture1.psd",
          "relativeFileName": "..\\..\\11_UNITY ASSET URP\\TATIC_WAR\\Assets\\IMPORT_ASSETS\\TH_art\\xanh_co_map\\MapTexture1.psd"
        }
      },
      "name": "MapTexture1_2",
      "uri": "data:image/png;base64,"
    }
  ],
  "materials": [
    {
      "extras": {
        "FBX-glTF-conv": {
          "raw": {
            "properties": {
              "Maya": {
                "value": {
                  "TypeId": {
                    "value": 1138001
                  },
                  "aiEnableMatte": {
                    "value": false
                  },
                  "aiMatteColor": {
                    "value": [
                      0.0,
                      0.0,
                      0.0
                    ]
                  },
                  "aiMatteColorA": {
                    "value": 0.0
                  },
                  "aovId1": {
                    "value": ""
                  },
                  "aovId2": {
                    "value": ""
                  },
                  "aovId3": {
                    "value": ""
                  },
                  "aovId4": {
                    "value": ""
                  },
                  "aovId5": {
                    "value": ""
                  },
                  "aovId6": {
                    "value": ""
                  },
                  "aovId7": {
                    "value": ""
                  },
                  "aovId8": {
                    "value": ""
                  },
                  "base": {
                    "value": 1.0
                  },
                  "baseColor": {
                    "texture": {
                      "index": 0
                    },
                    "value": [
                      0.0,
                      0.0,
                      0.0
                    ]
                  },
                  "caustics": {
                    "value": false
                  },
                  "coat": {
                    "value": 0.0
                  },
                  "coatAffectColor": {
                    "value": 0.0
                  },
                  "coatAffectRoughness": {
                    "value": 0.0
                  },
                  "coatAnisotropy": {
                    "value": 0.0
                  },
                  "coatColor": {
                    "value": [
                      1.0,
                      1.0,
                      1.0
                    ]
                  },
                  "coatIOR": {
                    "value": 1.5
                  },
                  "coatNormal": {
                    "value": [
                      0.0,
                      0.0,
                      0.0
                    ]
                  },
                  "coatRotation": {
                    "value": 0.0
                  },
                  "coatRoughness": {
                    "value": 0.10000000149011612
                  },
                  "dielectricPriority": {
                    "value": 0
                  },
                  "diffuseRoughness": {
                    "value": 0.0
                  },
                  "emission": {
                    "value": 0.0
                  },
                  "emissionColor": {
                    "value": [
                      1.0,
                      1.0,
                      1.0
                    ]
                  },
                  "exitToBackground": {
                    "value": false
                  },
                  "id1": {
                    "value": [
                      0.0,
                      0.0,
                      0.0
                    ]
                  },
                  "id2": {
                    "value": [
                      0.0,
                      0.0,
                      0.0
                    ]
                  },
                  "id3": {
                    "value": [
                      0.0,
                      0.0,
                      0.0
                    ]
                  },
                  "id4": {
                    "value": [
                      0.0,
                      0.0,
                      0.0
                    ]
                  },
                  "id5": {
                    "value": [
                      0.0,
                      0.0,
                      0.0
                    ]
                  },
                  "id6": {
                    "value": [
                      0.0,
                      0.0,
                      0.0
                    ]
                  },
                  "id7": {
                    "value": [
                      0.0,
                      0.0,
                      0.0
                    ]
                  },
                  "id8": {
                    "value": [
                      0.0,
                      0.0,
                      0.0
                    ]
                  },
                  "indirectDiffuse": {
                    "value": 1.0
                  },
                  "indirectSpecular": {
                    "value": 1.0
                  },
                  "internalReflections": {
                    "value": true
                  },
                  "metalness": {
                    "value": 0.0
                  },
                  "normalCamera": {
                    "value": [
                      1.0,
                      1.0,
                      1.0
                    ]
                  },
                  "normalCameraFactor": {
                    "value": 0.0
                  },
                  "normalCameraUsedAs": {
                    "value": 0
                  },
                  "opacity": {
                    "value": [
                      1.0,
                      1.0,
                      1.0
                    ]
                  },
                  "outAlpha": {
                    "value": 0.0
                  },
                  "sheen": {
                    "value": 0.0
                  },
                  "sheenColor": {
                    "value": [
                      1.0,
                      1.0,
                      1.0
                    ]
                  },
                  "sheenRoughness": {
                    "value": 0.30000001192092896
                  },
                  "specular": {
                    "value": 0.0
                  },
                  "specularAnisotropy": {
                    "value": 0.0
                  },
                  "specularColor": {
                    "value": [
                      1.0,
                      1.0,
                      1.0
                    ]
                  },
                  "specularIOR": {
                    "value": 1.5
                  },
                  "specularRotation": {
                    "value": 0.0
                  },
                  "specularRoughness": {
                    "value": 0.0
                  },
                  "subsurface": {
                    "value": 0.0
                  },
                  "subsurfaceAnisotropy": {
                    "value": 0.0
                  },
                  "subsurfaceColor": {
                    "value": [
                      1.0,
                      1.0,
                      1.0
                    ]
                  },
                  "subsurfaceRadius": {
                    "value": [
                      1.0,
                      1.0,
                      1.0
                    ]
                  },
                  "subsurfaceScale": {
                    "value": 1.0
                  },
                  "tangent": {
                    "value": [
                      0.0,
                      0.0,
                      0.0
                    ]
                  },
                  "thinFilmIOR": {
                    "value": 1.5
                  },
                  "thinFilmThickness": {
                    "value": 0.0
                  },
                  "thinWalled": {
                    "value": false
                  },
                  "transmission": {
                    "value": 0.0
                  },
                  "transmissionColor": {
                    "value": [
                      1.0,
                      1.0,
                      1.0
                    ]
                  },
                  "transmissionDepth": {
                    "value": 0.0
                  },
                  "transmissionDispersion": {
                    "value": 0.0
                  },
                  "transmissionExtraRoughness": {
                    "value": 0.0
                  },
                  "transmissionScatter": {
                    "value": [
                      0.0,
                      0.0,
                      0.0
                    ]
                  },
                  "transmissionScatterAnisotropy": {
                    "value": 0.0
                  },
                  "transmitAovs": {
                    "value": false
                  }
                }
              },
              "MultiLayer": {
                "value": false
              },
              "ShadingModel": {
                "value": ""
              }
            }
          }
        }
      },
      "name": "Map_01_M"
    }
  ],
  "meshes": [
    {
      "name": "pine_tree",
      "primitives": [
        {
          "attributes": {
            "NORMAL": 1,
            "POSITION": 0,
            "TEXCOORD_0": 2
          },
          "indices": 3,
          "material": 0
        }
      ]
    }
  ],
  "nodes": [
    {
      "mesh": 0,
      "name": "pine_tree"
    }
  ],
  "samplers": [
    {}
  ],
  "scenes": [
    {
      "nodes": [
        0
      ]
    }
  ],
  "textures": [
    {
      "name": "MapTexture1_2",
      "sampler": 0,
      "source": 0
    }
  ]
}